<svg width="40" height="40" viewBox="0 0 40 40" fill="none" xmlns="http://www.w3.org/2000/svg">
<g id="vuesax/bold/like-shapes">
<g id="like-shapes">
<path id="Vector" d="M35.9335 17.8999L33.6668 15.2666C33.2335 14.7666 32.8835 13.8333 32.8835 13.1666V10.3333C32.8835 8.5666 31.4335 7.1166 29.6668 7.1166H26.8335C26.1835 7.1166 25.2335 6.7666 24.7335 6.33327L22.1001 4.0666C20.9501 3.08327 19.0668 3.08327 17.9001 4.0666L15.2835 6.34993C14.7835 6.7666 13.8335 7.1166 13.1835 7.1166H10.3001C8.53346 7.1166 7.08346 8.5666 7.08346 10.3333V13.1833C7.08346 13.8333 6.73346 14.7666 6.3168 15.2666L4.0668 17.9166C3.10013 19.0666 3.10013 20.9333 4.0668 22.0833L6.3168 24.7333C6.73346 25.2333 7.08346 26.1666 7.08346 26.8166V29.6666C7.08346 31.4333 8.53346 32.8833 10.3001 32.8833H13.1835C13.8335 32.8833 14.7835 33.2333 15.2835 33.6666L17.9168 35.9333C19.0668 36.9166 20.9501 36.9166 22.1168 35.9333L24.7501 33.6666C25.2501 33.2333 26.1835 32.8833 26.8501 32.8833H29.6835C31.4501 32.8833 32.9001 31.4333 32.9001 29.6666V26.8333C32.9001 26.1833 33.2501 25.2333 33.6835 24.7333L35.9501 22.0999C36.9168 20.9499 36.9168 19.0499 35.9335 17.8999ZM27.8001 19.9999L25.8501 25.9333C25.6001 26.9166 24.5501 27.7166 23.4835 27.7166H20.4001C19.8668 27.7166 19.1168 27.5333 18.7835 27.1999L16.3335 25.2833C16.2835 26.3499 15.8001 26.7999 14.6168 26.7999H13.8168C12.5835 26.7999 12.0835 26.3166 12.0835 25.1499V17.1833C12.0835 16.0166 12.5835 15.5333 13.8168 15.5333H14.6335C15.8668 15.5333 16.3668 16.0166 16.3668 17.1833V17.7833L19.6001 12.9833C19.9335 12.4666 20.7835 12.0999 21.5001 12.3833C22.2835 12.6499 22.7835 13.5166 22.6168 14.2833L22.2168 16.8833C22.1835 17.1166 22.2335 17.3333 22.3835 17.4999C22.5168 17.6499 22.7168 17.7499 22.9335 17.7499H26.1835C26.8168 17.7499 27.3501 17.9999 27.6668 18.4499C27.9501 18.8833 28.0001 19.4333 27.8001 19.9999Z" fill="#FF8A00"/>
</g>
</g>
</svg>
