<svg width="24" height="25" viewBox="0 0 24 25" fill="none" xmlns="http://www.w3.org/2000/svg">
<g id="vuesax/bold/location">
<path id="Vector" d="M20.6191 9.14336C19.5691 4.52336 15.5391 2.44336 11.9991 2.44336C11.9991 2.44336 11.9991 2.44336 11.9891 2.44336C8.45912 2.44336 4.41912 4.51336 3.36912 9.13336C2.19912 14.2934 5.35912 18.6634 8.21912 21.4134C9.27912 22.4334 10.6391 22.9434 11.9991 22.9434C13.3591 22.9434 14.7191 22.4334 15.7691 21.4134C18.6291 18.6634 21.7891 14.3034 20.6191 9.14336ZM11.9991 14.1534C10.2591 14.1534 8.84912 12.7434 8.84912 11.0034C8.84912 9.26336 10.2591 7.85336 11.9991 7.85336C13.7391 7.85336 15.1491 9.26336 15.1491 11.0034C15.1491 12.7434 13.7391 14.1534 11.9991 14.1534Z" fill="white"/>
</g>
</svg>
