<svg width="16" height="16" viewBox="0 0 16 16" fill="none" xmlns="http://www.w3.org/2000/svg">
<g id="vuesax/bold/transaction-minus">
<g id="transaction-minus">
<path id="Vector" d="M10.6125 1.75H5.8875C3.525 1.75 2.9375 2.38125 2.9375 4.9V11.9375C2.9375 13.6 3.85 13.9938 4.95625 12.8063L4.9625 12.8C5.475 12.2563 6.25625 12.3 6.7 12.8938L7.33125 13.7375C7.8375 14.4063 8.65625 14.4063 9.1625 13.7375L9.79375 12.8938C10.2438 12.2938 11.025 12.25 11.5375 12.8C12.65 13.9875 13.5562 13.5938 13.5562 11.9313V4.9C13.5625 2.38125 12.975 1.75 10.6125 1.75ZM9.96875 7.21875H6.53125C6.275 7.21875 6.0625 7.00625 6.0625 6.75C6.0625 6.49375 6.275 6.28125 6.53125 6.28125H9.96875C10.225 6.28125 10.4375 6.49375 10.4375 6.75C10.4375 7.00625 10.225 7.21875 9.96875 7.21875Z" fill="white"/>
</g>
</g>
</svg>
