<svg width="40" height="40" viewBox="0 0 40 40" fill="none" xmlns="http://www.w3.org/2000/svg">
<g id="vuesax/bold/setting-2">
<g id="setting-2">
<path id="Vector" d="M33.5026 15.3667C30.4859 15.3667 29.2526 13.2334 30.7526 10.6167C31.6193 9.10006 31.1026 7.16672 29.5859 6.30006L26.7026 4.65006C25.3859 3.86672 23.6859 4.33339 22.9026 5.65006L22.7193 5.96672C21.2193 8.58339 18.7526 8.58339 17.2359 5.96672L17.0526 5.65006C16.3026 4.33339 14.6026 3.86672 13.2859 4.65006L10.4026 6.30006C8.88594 7.16672 8.36927 9.11672 9.23594 10.6334C10.7526 13.2334 9.51927 15.3667 6.5026 15.3667C4.76927 15.3667 3.33594 16.7834 3.33594 18.5334V21.4667C3.33594 23.2001 4.7526 24.6334 6.5026 24.6334C9.51927 24.6334 10.7526 26.7667 9.23594 29.3834C8.36927 30.9001 8.88594 32.8334 10.4026 33.7001L13.2859 35.3501C14.6026 36.1334 16.3026 35.6667 17.0859 34.3501L17.2693 34.0334C18.7693 31.4167 21.2359 31.4167 22.7526 34.0334L22.9359 34.3501C23.7193 35.6667 25.4193 36.1334 26.7359 35.3501L29.6193 33.7001C31.1359 32.8334 31.6526 30.8834 30.7859 29.3834C29.2693 26.7667 30.5026 24.6334 33.5193 24.6334C35.2526 24.6334 36.6859 23.2167 36.6859 21.4667V18.5334C36.6693 16.8001 35.2526 15.3667 33.5026 15.3667ZM20.0026 25.4167C17.0193 25.4167 14.5859 22.9834 14.5859 20.0001C14.5859 17.0167 17.0193 14.5834 20.0026 14.5834C22.9859 14.5834 25.4193 17.0167 25.4193 20.0001C25.4193 22.9834 22.9859 25.4167 20.0026 25.4167Z" fill="#FF8A00"/>
</g>
</g>
</svg>
