<svg width="15" height="16" viewBox="0 0 15 16" fill="none" xmlns="http://www.w3.org/2000/svg">
<g id="vuesax/bold/star">
<g id="star">
<path id="Vector" d="M8.63519 2.89573L9.74421 5.11377C9.89365 5.42053 10.2948 5.71155 10.633 5.77447L12.6387 6.10482C13.9207 6.31718 14.2196 7.2453 13.2994 8.17342L11.7342 9.73863C11.4746 9.99819 11.3252 10.5094 11.4117 10.8791L11.86 12.814C12.214 14.3399 11.3959 14.9377 10.051 14.1354L8.17113 13.0185C7.83292 12.814 7.26661 12.814 6.9284 13.0185L5.04856 14.1354C3.70358 14.9298 2.88558 14.3399 3.23952 12.814L3.68785 10.8791C3.75864 10.5016 3.60919 9.99033 3.34963 9.73077L1.78442 8.16555C0.864165 7.2453 1.16305 6.31718 2.44511 6.09695L4.45079 5.7666C4.789 5.71154 5.19014 5.41266 5.33958 5.10591L6.44861 2.88786C7.05424 1.69232 8.02955 1.69232 8.63519 2.89573Z" fill="#909090"/>
</g>
</g>
</svg>
