<svg width="24" height="25" viewBox="0 0 24 25" fill="none" xmlns="http://www.w3.org/2000/svg">
<g id="vuesax/bold/call">
<g id="call">
<path id="Vector" d="M11.05 15.6434L9.2 17.4934C8.81 17.8834 8.19 17.8834 7.79 17.5034C7.68 17.3934 7.57 17.2934 7.46 17.1834C6.43 16.1434 5.5 15.0534 4.67 13.9134C3.85 12.7734 3.19 11.6334 2.71 10.5034C2.24 9.36336 2 8.27336 2 7.23336C2 6.55336 2.12 5.90336 2.36 5.30336C2.6 4.69336 2.98 4.13336 3.51 3.63336C4.15 3.00336 4.85 2.69336 5.59 2.69336C5.87 2.69336 6.15 2.75336 6.4 2.87336C6.66 2.99336 6.89 3.17336 7.07 3.43336L9.39 6.70336C9.57 6.95336 9.7 7.18336 9.79 7.40336C9.88 7.61336 9.93 7.82336 9.93 8.01336C9.93 8.25336 9.86 8.49336 9.72 8.72336C9.59 8.95336 9.4 9.19336 9.16 9.43336L8.4 10.2234C8.29 10.3334 8.24 10.4634 8.24 10.6234C8.24 10.7034 8.25 10.7734 8.27 10.8534C8.3 10.9334 8.33 10.9934 8.35 11.0534C8.53 11.3834 8.84 11.8134 9.28 12.3334C9.73 12.8534 10.21 13.3834 10.73 13.9134C10.83 14.0134 10.94 14.1134 11.04 14.2134C11.44 14.6034 11.45 15.2434 11.05 15.6434Z" fill="white"/>
<path id="Vector_2" d="M21.9696 19.0234C21.9696 19.3034 21.9196 19.5934 21.8196 19.8734C21.7896 19.9534 21.7596 20.0334 21.7196 20.1134C21.5496 20.4734 21.3296 20.8134 21.0396 21.1334C20.5496 21.6734 20.0096 22.0634 19.3996 22.3134C19.3896 22.3134 19.3796 22.3234 19.3696 22.3234C18.7796 22.5634 18.1396 22.6934 17.4496 22.6934C16.4296 22.6934 15.3396 22.4534 14.1896 21.9634C13.0396 21.4734 11.8896 20.8134 10.7496 19.9834C10.3596 19.6934 9.96961 19.4034 9.59961 19.0934L12.8696 15.8234C13.1496 16.0334 13.3996 16.1934 13.6096 16.3034C13.6596 16.3234 13.7196 16.3534 13.7896 16.3834C13.8696 16.4134 13.9496 16.4234 14.0396 16.4234C14.2096 16.4234 14.3396 16.3634 14.4496 16.2534L15.2096 15.5034C15.4596 15.2534 15.6996 15.0634 15.9296 14.9434C16.1596 14.8034 16.3896 14.7334 16.6396 14.7334C16.8296 14.7334 17.0296 14.7734 17.2496 14.8634C17.4696 14.9534 17.6996 15.0834 17.9496 15.2534L21.2596 17.6034C21.5196 17.7834 21.6996 17.9934 21.8096 18.2434C21.9096 18.4934 21.9696 18.7434 21.9696 19.0234Z" fill="white"/>
</g>
</g>
</svg>
