<svg width="24" height="25" viewBox="0 0 24 25" fill="none" xmlns="http://www.w3.org/2000/svg">
<g id="vuesax/bold/clock">
<g id="clock">
<path id="Vector" d="M12 2.69336C6.49 2.69336 2 7.18336 2 12.6934C2 18.2034 6.49 22.6934 12 22.6934C17.51 22.6934 22 18.2034 22 12.6934C22 7.18336 17.51 2.69336 12 2.69336ZM16.35 16.2634C16.21 16.5034 15.96 16.6334 15.7 16.6334C15.57 16.6334 15.44 16.6034 15.32 16.5234L12.22 14.6734C11.45 14.2134 10.88 13.2034 10.88 12.3134V8.21336C10.88 7.80336 11.22 7.46336 11.63 7.46336C12.04 7.46336 12.38 7.80336 12.38 8.21336V12.3134C12.38 12.6734 12.68 13.2034 12.99 13.3834L16.09 15.2334C16.45 15.4434 16.57 15.9034 16.35 16.2634Z" fill="white"/>
</g>
</g>
</svg>
