<svg width="40" height="40" viewBox="0 0 40 40" fill="none" xmlns="http://www.w3.org/2000/svg">
<g id="vuesax/bold/notification">
<g id="notification">
<path id="Vector" d="M31.667 13.3335C34.4284 13.3335 36.667 11.0949 36.667 8.3335C36.667 5.57207 34.4284 3.3335 31.667 3.3335C28.9056 3.3335 26.667 5.57207 26.667 8.3335C26.667 11.0949 28.9056 13.3335 31.667 13.3335Z" fill="#FF8A00"/>
<path id="Vector_2" d="M34.9997 17.3333V27.4667C34.9997 27.7 34.983 27.9333 34.9663 28.15C34.9497 28.35 34.933 28.5333 34.8997 28.7333C34.883 28.9333 34.8497 29.1333 34.8163 29.3167C34.233 33.35 31.6663 35.9 27.6497 36.4833C27.4663 36.5167 27.2663 36.55 27.0663 36.5667C26.8663 36.6 26.683 36.6167 26.483 36.6333C26.2663 36.65 26.033 36.6667 25.7997 36.6667H12.533C12.2997 36.6667 12.0663 36.65 11.8497 36.6333C11.6497 36.6167 11.4663 36.6 11.2663 36.5667C11.0663 36.55 10.8663 36.5167 10.683 36.4833C6.66634 35.9 4.09967 33.35 3.51634 29.3167C3.48301 29.1333 3.44967 28.9333 3.43301 28.7333C3.39967 28.5333 3.38301 28.35 3.36634 28.15C3.34967 27.9333 3.33301 27.7 3.33301 27.4667V14.2C3.33301 13.9667 3.34967 13.7333 3.36634 13.5167C3.38301 13.3167 3.39967 13.1333 3.43301 12.9333C3.44967 12.7333 3.48301 12.5333 3.51634 12.35C4.09967 8.31667 6.66634 5.76667 10.683 5.18333C10.8663 5.15 11.0663 5.11667 11.2663 5.1C11.4663 5.06667 11.6497 5.05 11.8497 5.03333C12.0663 5.01667 12.2997 5 12.533 5H22.6663C23.733 5 24.4997 5.96667 24.2997 7C24.2997 7.03333 24.283 7.06667 24.283 7.1C24.2497 7.26667 24.233 7.43333 24.1997 7.61667C24.133 8.31667 24.1663 9.06667 24.3163 9.83333C24.3663 10.0333 24.3997 10.2 24.4663 10.3833C24.5997 10.9333 24.8163 11.45 25.0997 11.9333C25.1997 12.1333 25.333 12.3333 25.4497 12.5167C25.9997 13.3167 26.683 14 27.483 14.55C27.6663 14.6667 27.8663 14.8 28.0663 14.9C28.5497 15.1833 29.0663 15.4 29.6163 15.5333C29.7997 15.6 29.9663 15.6333 30.1663 15.6833C30.933 15.8333 31.683 15.8667 32.383 15.8C32.5663 15.7667 32.733 15.75 32.8997 15.7167C32.933 15.7167 32.9663 15.7 32.9997 15.7C34.033 15.5 34.9997 16.2667 34.9997 17.3333Z" fill="#FF8A00"/>
</g>
</g>
</svg>
