<svg width="40" height="40" viewBox="0 0 40 40" fill="none" xmlns="http://www.w3.org/2000/svg">
<g id="Group">
<path id="Vector" d="M20 40C31.0457 40 40 31.0457 40 20C40 8.9543 31.0457 0 20 0C8.9543 0 0 8.9543 0 20C0 31.0457 8.9543 40 20 40Z" fill="#BE3C04"/>
<path id="Vector_2" d="M22.1206 19.9997L27.0606 15.0597C27.3256 14.7753 27.4698 14.3993 27.463 14.0106C27.4561 13.622 27.2987 13.2513 27.0239 12.9765C26.7491 12.7016 26.3783 12.5442 25.9897 12.5373C25.6011 12.5305 25.225 12.6747 24.9406 12.9397L20.0006 17.8797L15.0606 12.9397C14.7763 12.6747 14.4002 12.5305 14.0116 12.5373C13.623 12.5442 13.2522 12.7016 12.9774 12.9765C12.7026 13.2513 12.5451 13.622 12.5383 14.0106C12.5314 14.3993 12.6757 14.7753 12.9406 15.0597L17.8806 19.9997L12.9406 24.9397C12.6597 25.2209 12.502 25.6022 12.502 25.9997C12.502 26.3972 12.6597 26.7784 12.9406 27.0597C13.2219 27.3406 13.6031 27.4984 14.0006 27.4984C14.3981 27.4984 14.7794 27.3406 15.0606 27.0597L20.0006 22.1197L24.9406 27.0597C25.2219 27.3406 25.6031 27.4984 26.0006 27.4984C26.3981 27.4984 26.7794 27.3406 27.0606 27.0597C27.3415 26.7784 27.4993 26.3972 27.4993 25.9997C27.4993 25.6022 27.3415 25.2209 27.0606 24.9397L22.1206 19.9997Z" fill="#EDEBEA"/>
</g>
</svg>
