<svg width="24" height="25" viewBox="0 0 24 25" fill="none" xmlns="http://www.w3.org/2000/svg">
<g id="vuesax/bold/note-2">
<path id="Vector" d="M12.678 20.6503C12.9528 20.7142 12.9779 21.0741 12.7103 21.1633L11.1303 21.6833C7.16034 22.9633 5.07034 21.8933 3.78034 17.9233L2.50034 13.9733C1.22034 10.0033 2.28034 7.90328 6.25034 6.62328L6.77434 6.44975C7.1772 6.31633 7.56927 6.72039 7.45487 7.12907C7.39817 7.33164 7.34362 7.54304 7.29034 7.76328L6.31034 11.9533C5.21034 16.6633 6.82034 19.2633 11.5303 20.3833L12.678 20.6503Z" fill="white"/>
<path id="Vector_2" d="M17.1702 3.90288L15.5002 3.51288C12.1602 2.72288 10.1702 3.37288 9.00018 5.79288C8.70018 6.40288 8.46018 7.14288 8.26018 7.99288L7.28018 12.1829C6.30018 16.3629 7.59018 18.4229 11.7602 19.4129L13.4402 19.8129C14.0202 19.9529 14.5602 20.0429 15.0602 20.0829C18.1802 20.3829 19.8402 18.9229 20.6802 15.3129L21.6602 11.1329C22.6402 6.95288 21.3602 4.88288 17.1702 3.90288ZM15.2902 14.0229C15.2002 14.3629 14.9002 14.5829 14.5602 14.5829C14.5002 14.5829 14.4402 14.5729 14.3702 14.5629L11.4602 13.8229C11.0602 13.7229 10.8202 13.3129 10.9202 12.9129C11.0202 12.5129 11.4302 12.2729 11.8302 12.3729L14.7402 13.1129C15.1502 13.2129 15.3902 13.6229 15.2902 14.0229ZM18.2202 10.6429C18.1302 10.9829 17.8302 11.2029 17.4902 11.2029C17.4302 11.2029 17.3702 11.1929 17.3002 11.1829L12.4502 9.95288C12.0502 9.85288 11.8102 9.44288 11.9102 9.04288C12.0102 8.64288 12.4202 8.40288 12.8202 8.50288L17.6702 9.73288C18.0802 9.82288 18.3202 10.2329 18.2202 10.6429Z" fill="white"/>
</g>
</svg>
