<svg width="15" height="16" viewBox="0 0 15 16" fill="none" xmlns="http://www.w3.org/2000/svg">
<g id="vuesax/bold/profile-circle">
<g id="profile-circle">
<path id="Vector" d="M13.75 8.24219C13.75 4.79844 10.9437 1.99219 7.5 1.99219C4.05625 1.99219 1.25 4.79844 1.25 8.24219C1.25 10.0547 2.03125 11.6859 3.26875 12.8297C3.26875 12.8359 3.26875 12.8359 3.2625 12.8422C3.325 12.9047 3.4 12.9547 3.4625 13.0109C3.5 13.0422 3.53125 13.0734 3.56875 13.0984C3.68125 13.1922 3.80625 13.2797 3.925 13.3672C3.96875 13.3984 4.00625 13.4234 4.05 13.4547C4.16875 13.5359 4.29375 13.6109 4.425 13.6797C4.46875 13.7047 4.51875 13.7359 4.5625 13.7609C4.6875 13.8297 4.81875 13.8922 4.95625 13.9484C5.00625 13.9734 5.05625 13.9984 5.10625 14.0172C5.24375 14.0734 5.38125 14.1234 5.51875 14.1672C5.56875 14.1859 5.61875 14.2047 5.66875 14.2172C5.81875 14.2609 5.96875 14.2984 6.11875 14.3359C6.1625 14.3484 6.20625 14.3609 6.25625 14.3672C6.43125 14.4047 6.60625 14.4297 6.7875 14.4484C6.8125 14.4484 6.8375 14.4547 6.8625 14.4609C7.075 14.4797 7.2875 14.4922 7.5 14.4922C7.7125 14.4922 7.925 14.4797 8.13125 14.4609C8.15625 14.4609 8.18125 14.4547 8.20625 14.4484C8.3875 14.4297 8.5625 14.4047 8.7375 14.3672C8.78125 14.3609 8.825 14.3422 8.875 14.3359C9.025 14.2984 9.18125 14.2672 9.325 14.2172C9.375 14.1984 9.425 14.1797 9.475 14.1672C9.6125 14.1172 9.75625 14.0734 9.8875 14.0172C9.9375 13.9984 9.9875 13.9734 10.0375 13.9484C10.1687 13.8922 10.3 13.8297 10.4312 13.7609C10.4812 13.7359 10.525 13.7047 10.5687 13.6797C10.6937 13.6047 10.8187 13.5359 10.9437 13.4547C10.9875 13.4297 11.025 13.3984 11.0687 13.3672C11.1937 13.2797 11.3125 13.1922 11.425 13.0984C11.4625 13.0672 11.4937 13.0359 11.5312 13.0109C11.6 12.9547 11.6687 12.8984 11.7312 12.8422C11.7312 12.8359 11.7312 12.8359 11.725 12.8297C12.9687 11.6859 13.75 10.0547 13.75 8.24219ZM10.5875 11.3484C8.89375 10.2109 6.11875 10.2109 4.4125 11.3484C4.1375 11.5297 3.9125 11.7422 3.725 11.9734C2.775 11.0109 2.1875 9.69219 2.1875 8.24219C2.1875 5.31094 4.56875 2.92969 7.5 2.92969C10.4312 2.92969 12.8125 5.31094 12.8125 8.24219C12.8125 9.69219 12.225 11.0109 11.275 11.9734C11.0938 11.7422 10.8625 11.5297 10.5875 11.3484Z" fill="#303030"/>
<path id="Vector_2" d="M7.5 5.07324C6.20625 5.07324 5.15625 6.12324 5.15625 7.41699C5.15625 8.68574 6.15 9.71699 7.46875 9.75449C7.4875 9.75449 7.5125 9.75449 7.525 9.75449C7.5375 9.75449 7.55625 9.75449 7.56875 9.75449C7.575 9.75449 7.58125 9.75449 7.58125 9.75449C8.84375 9.71074 9.8375 8.68574 9.84375 7.41699C9.84375 6.12324 8.79375 5.07324 7.5 5.07324Z" fill="#303030"/>
</g>
</g>
</svg>
