<svg width="17" height="18" viewBox="0 0 17 18" fill="none" xmlns="http://www.w3.org/2000/svg">
<g id="vuesax/bold/play">
<g id="play">
<path id="Vector" d="M13.49 6.59965L1.6 13.7696C0.9 14.1896 0 13.6896 0 12.8696V4.86965C0 1.37965 3.77 -0.800353 6.8 0.939647L11.39 3.57965L13.48 4.77965C14.17 5.18965 14.18 6.18965 13.49 6.59965Z" fill="#303030"/>
<path id="Vector_2" d="M14.0908 12.4596L10.0408 14.7996L6.00079 17.1296C4.55079 17.9596 2.91079 17.7896 1.72079 16.9496C1.14079 16.5496 1.21079 15.6596 1.82079 15.2996L14.5308 7.67965C15.1308 7.31965 15.9208 7.65965 16.0308 8.34965C16.2808 9.89965 15.6408 11.5696 14.0908 12.4596Z" fill="#303030"/>
</g>
</g>
</svg>
