<svg width="15" height="16" viewBox="0 0 15 16" fill="none" xmlns="http://www.w3.org/2000/svg">
<g id="vuesax/bold/clock">
<g id="clock">
<path id="Vector" d="M7.5 1.99219C4.05625 1.99219 1.25 4.79844 1.25 8.24219C1.25 11.6859 4.05625 14.4922 7.5 14.4922C10.9438 14.4922 13.75 11.6859 13.75 8.24219C13.75 4.79844 10.9438 1.99219 7.5 1.99219ZM10.2188 10.4734C10.1313 10.6234 9.975 10.7047 9.8125 10.7047C9.73125 10.7047 9.65 10.6859 9.575 10.6359L7.6375 9.47969C7.15625 9.19219 6.8 8.56094 6.8 8.00469V5.44219C6.8 5.18594 7.0125 4.97344 7.26875 4.97344C7.525 4.97344 7.7375 5.18594 7.7375 5.44219V8.00469C7.7375 8.22969 7.925 8.56094 8.11875 8.67344L10.0563 9.82969C10.2813 9.96094 10.3563 10.2484 10.2188 10.4734Z" fill="#303030"/>
</g>
</g>
</svg>
